<mxfile host="app.diagrams.net" modified="2021-12-17T09:12:48.256Z" agent="5.0 (Windows NT 10.0; Win64; x64) AppleWebKit/537.36 (KHTML, like Gecko) Chrome/96.0.4664.93 Safari/537.36" etag="Ia3mRzOxtvwMX4DgY_I3" version="15.9.4" type="github">
  <diagram id="_k0dfrmrgLHj1u3hm91S" name="Page-1">
    <mxGraphModel dx="1185" dy="743" grid="1" gridSize="10" guides="1" tooltips="1" connect="1" arrows="1" fold="1" page="1" pageScale="1" pageWidth="827" pageHeight="1169" math="0" shadow="0">
      <root>
        <mxCell id="0" />
        <mxCell id="1" parent="0" />
        <mxCell id="-MNfSVvUteKUCQnHGyNg-25" value="" style="rounded=1;whiteSpace=wrap;html=1;strokeWidth=2;fillWeight=1;hachureGap=4;hachureAngle=45;sketch=1;strokeColor=#000000;arcSize=10;" vertex="1" parent="1">
          <mxGeometry x="70" y="110" width="410" height="310" as="geometry" />
        </mxCell>
        <mxCell id="-MNfSVvUteKUCQnHGyNg-23" value="" style="rounded=1;whiteSpace=wrap;html=1;strokeWidth=2;fillWeight=1;hachureGap=4;hachureAngle=45;sketch=1;strokeColor=#000000;dashed=1;" vertex="1" parent="1">
          <mxGeometry x="80" y="120" width="330" height="160" as="geometry" />
        </mxCell>
        <mxCell id="-MNfSVvUteKUCQnHGyNg-21" value="" style="rounded=1;whiteSpace=wrap;html=1;strokeWidth=2;fillWeight=1;hachureGap=4;hachureAngle=45;sketch=1;strokeColor=#000000;dashed=1;" vertex="1" parent="1">
          <mxGeometry x="80" y="290" width="330" height="120" as="geometry" />
        </mxCell>
        <mxCell id="-MNfSVvUteKUCQnHGyNg-1" value="LVS(Logic Volue Store)" style="rounded=1;whiteSpace=wrap;html=1;strokeWidth=2;fillWeight=1;hachureGap=4;hachureAngle=45;fillColor=#f8cecc;sketch=1;strokeColor=#b85450;" vertex="1" parent="1">
          <mxGeometry x="120" y="360" width="280" height="40" as="geometry" />
        </mxCell>
        <mxCell id="-MNfSVvUteKUCQnHGyNg-5" style="edgeStyle=orthogonalEdgeStyle;rounded=0;orthogonalLoop=1;jettySize=auto;html=1;entryX=0.145;entryY=0.021;entryDx=0;entryDy=0;entryPerimeter=0;sketch=1;" edge="1" parent="1" source="-MNfSVvUteKUCQnHGyNg-2" target="-MNfSVvUteKUCQnHGyNg-1">
          <mxGeometry relative="1" as="geometry" />
        </mxCell>
        <mxCell id="-MNfSVvUteKUCQnHGyNg-2" value="LV" style="rounded=1;whiteSpace=wrap;html=1;strokeWidth=2;fillWeight=1;hachureGap=4;hachureAngle=45;sketch=1;fillColor=#dae8fc;strokeColor=#6c8ebf;" vertex="1" parent="1">
          <mxGeometry x="120" y="300" width="80" height="40" as="geometry" />
        </mxCell>
        <mxCell id="-MNfSVvUteKUCQnHGyNg-6" style="edgeStyle=orthogonalEdgeStyle;rounded=0;sketch=1;orthogonalLoop=1;jettySize=auto;html=1;entryX=0.5;entryY=0;entryDx=0;entryDy=0;" edge="1" parent="1" source="-MNfSVvUteKUCQnHGyNg-3" target="-MNfSVvUteKUCQnHGyNg-1">
          <mxGeometry relative="1" as="geometry" />
        </mxCell>
        <mxCell id="-MNfSVvUteKUCQnHGyNg-3" value="LV" style="rounded=1;whiteSpace=wrap;html=1;strokeWidth=2;fillWeight=1;hachureGap=4;hachureAngle=45;sketch=1;fillColor=#dae8fc;strokeColor=#6c8ebf;" vertex="1" parent="1">
          <mxGeometry x="220" y="300" width="80" height="40" as="geometry" />
        </mxCell>
        <mxCell id="-MNfSVvUteKUCQnHGyNg-7" style="edgeStyle=orthogonalEdgeStyle;rounded=0;sketch=1;orthogonalLoop=1;jettySize=auto;html=1;" edge="1" parent="1" source="-MNfSVvUteKUCQnHGyNg-4">
          <mxGeometry relative="1" as="geometry">
            <mxPoint x="361" y="360" as="targetPoint" />
          </mxGeometry>
        </mxCell>
        <mxCell id="-MNfSVvUteKUCQnHGyNg-4" value=". . ." style="rounded=1;whiteSpace=wrap;html=1;strokeWidth=2;fillWeight=1;hachureGap=4;hachureAngle=45;sketch=1;fillColor=#dae8fc;strokeColor=#6c8ebf;" vertex="1" parent="1">
          <mxGeometry x="320" y="300" width="80" height="40" as="geometry" />
        </mxCell>
        <mxCell id="-MNfSVvUteKUCQnHGyNg-11" value="" style="edgeStyle=orthogonalEdgeStyle;rounded=0;sketch=1;orthogonalLoop=1;jettySize=auto;html=1;" edge="1" parent="1" source="-MNfSVvUteKUCQnHGyNg-8" target="-MNfSVvUteKUCQnHGyNg-2">
          <mxGeometry relative="1" as="geometry" />
        </mxCell>
        <mxCell id="-MNfSVvUteKUCQnHGyNg-8" value="NS&lt;br&gt;(namespace)" style="rounded=1;whiteSpace=wrap;html=1;strokeWidth=2;fillWeight=1;hachureGap=4;hachureAngle=45;sketch=1;fillColor=#d5e8d4;strokeColor=#82b366;" vertex="1" parent="1">
          <mxGeometry x="120" y="230" width="80" height="40" as="geometry" />
        </mxCell>
        <mxCell id="-MNfSVvUteKUCQnHGyNg-12" value="" style="edgeStyle=orthogonalEdgeStyle;rounded=0;sketch=1;orthogonalLoop=1;jettySize=auto;html=1;" edge="1" parent="1" source="-MNfSVvUteKUCQnHGyNg-9" target="-MNfSVvUteKUCQnHGyNg-3">
          <mxGeometry relative="1" as="geometry" />
        </mxCell>
        <mxCell id="-MNfSVvUteKUCQnHGyNg-9" value="NS&lt;br&gt;(namespace)" style="rounded=1;whiteSpace=wrap;html=1;strokeWidth=2;fillWeight=1;hachureGap=4;hachureAngle=45;sketch=1;fillColor=#d5e8d4;strokeColor=#82b366;" vertex="1" parent="1">
          <mxGeometry x="220" y="230" width="80" height="40" as="geometry" />
        </mxCell>
        <mxCell id="-MNfSVvUteKUCQnHGyNg-13" value="" style="edgeStyle=orthogonalEdgeStyle;rounded=0;sketch=1;orthogonalLoop=1;jettySize=auto;html=1;" edge="1" parent="1" source="-MNfSVvUteKUCQnHGyNg-10" target="-MNfSVvUteKUCQnHGyNg-4">
          <mxGeometry relative="1" as="geometry" />
        </mxCell>
        <mxCell id="-MNfSVvUteKUCQnHGyNg-10" value=". . ." style="rounded=1;whiteSpace=wrap;html=1;strokeWidth=2;fillWeight=1;hachureGap=4;hachureAngle=45;sketch=1;fillColor=#d5e8d4;strokeColor=#82b366;" vertex="1" parent="1">
          <mxGeometry x="320" y="230" width="80" height="40" as="geometry" />
        </mxCell>
        <mxCell id="-MNfSVvUteKUCQnHGyNg-15" value="" style="edgeStyle=orthogonalEdgeStyle;rounded=0;sketch=1;orthogonalLoop=1;jettySize=auto;html=1;" edge="1" parent="1" source="-MNfSVvUteKUCQnHGyNg-14" target="-MNfSVvUteKUCQnHGyNg-8">
          <mxGeometry relative="1" as="geometry" />
        </mxCell>
        <mxCell id="-MNfSVvUteKUCQnHGyNg-14" value="subsystem" style="rounded=1;whiteSpace=wrap;html=1;strokeWidth=2;fillWeight=1;hachureGap=4;hachureAngle=45;sketch=1;fillColor=#fff2cc;strokeColor=#d6b656;" vertex="1" parent="1">
          <mxGeometry x="120" y="170" width="80" height="40" as="geometry" />
        </mxCell>
        <mxCell id="-MNfSVvUteKUCQnHGyNg-17" value="" style="edgeStyle=orthogonalEdgeStyle;rounded=0;sketch=1;orthogonalLoop=1;jettySize=auto;html=1;" edge="1" parent="1" source="-MNfSVvUteKUCQnHGyNg-16" target="-MNfSVvUteKUCQnHGyNg-9">
          <mxGeometry relative="1" as="geometry" />
        </mxCell>
        <mxCell id="-MNfSVvUteKUCQnHGyNg-16" value="subsystem" style="rounded=1;whiteSpace=wrap;html=1;strokeWidth=2;fillWeight=1;hachureGap=4;hachureAngle=45;sketch=1;fillColor=#fff2cc;strokeColor=#d6b656;" vertex="1" parent="1">
          <mxGeometry x="220" y="170" width="80" height="40" as="geometry" />
        </mxCell>
        <mxCell id="-MNfSVvUteKUCQnHGyNg-19" value="" style="edgeStyle=orthogonalEdgeStyle;rounded=0;sketch=1;orthogonalLoop=1;jettySize=auto;html=1;" edge="1" parent="1" source="-MNfSVvUteKUCQnHGyNg-18" target="-MNfSVvUteKUCQnHGyNg-10">
          <mxGeometry relative="1" as="geometry" />
        </mxCell>
        <mxCell id="-MNfSVvUteKUCQnHGyNg-18" value=". . ." style="rounded=1;whiteSpace=wrap;html=1;strokeWidth=2;fillWeight=1;hachureGap=4;hachureAngle=45;sketch=1;fillColor=#fff2cc;strokeColor=#d6b656;" vertex="1" parent="1">
          <mxGeometry x="320" y="170" width="80" height="40" as="geometry" />
        </mxCell>
        <mxCell id="-MNfSVvUteKUCQnHGyNg-20" value="Target(Listener)" style="rounded=1;whiteSpace=wrap;html=1;strokeWidth=2;fillWeight=1;hachureGap=4;hachureAngle=45;sketch=1;fillColor=#e1d5e7;strokeColor=#9673a6;" vertex="1" parent="1">
          <mxGeometry x="120" y="130" width="280" height="40" as="geometry" />
        </mxCell>
        <mxCell id="-MNfSVvUteKUCQnHGyNg-22" value="lvol" style="text;html=1;align=center;verticalAlign=middle;resizable=0;points=[];autosize=1;strokeColor=none;fillColor=none;" vertex="1" parent="1">
          <mxGeometry x="80" y="340" width="30" height="20" as="geometry" />
        </mxCell>
        <mxCell id="-MNfSVvUteKUCQnHGyNg-24" value="nvmf" style="text;html=1;align=center;verticalAlign=middle;resizable=0;points=[];autosize=1;strokeColor=none;fillColor=none;" vertex="1" parent="1">
          <mxGeometry x="80" y="190" width="40" height="20" as="geometry" />
        </mxCell>
        <mxCell id="-MNfSVvUteKUCQnHGyNg-26" value="SPDK" style="text;html=1;align=center;verticalAlign=middle;resizable=0;points=[];autosize=1;strokeColor=none;fillColor=none;fontSize=16;fontStyle=1" vertex="1" parent="1">
          <mxGeometry x="415" y="255" width="60" height="20" as="geometry" />
        </mxCell>
      </root>
    </mxGraphModel>
  </diagram>
</mxfile>
